<?xml version="1.0" encoding="UTF-8" standalone="no"?>
<svg
   xmlns:dc="http://purl.org/dc/elements/1.1/"
   xmlns:cc="http://creativecommons.org/ns#"
   xmlns:rdf="http://www.w3.org/1999/02/22-rdf-syntax-ns#"
   xmlns:svg="http://www.w3.org/2000/svg"
   xmlns="http://www.w3.org/2000/svg"
   xmlns:sodipodi="http://sodipodi.sourceforge.net/DTD/sodipodi-0.dtd"
   xmlns:inkscape="http://www.inkscape.org/namespaces/inkscape"
   enable-background="new 0 0 24 24"
   height="512"
   viewBox="0 0 24 24"
   width="512"
   version="1.1"
   id="svg10"
   sodipodi:docname="delivery-box.svg"
   inkscape:version="0.92.4 (5da689c313, 2019-01-14)">
  <metadata
     id="metadata16">
    <rdf:RDF>
      <cc:Work
         rdf:about="">
        <dc:format>image/svg+xml</dc:format>
        <dc:type
           rdf:resource="http://purl.org/dc/dcmitype/StillImage" />
      </cc:Work>
    </rdf:RDF>
  </metadata>
  <defs
     id="defs14" />
  <sodipodi:namedview
     pagecolor="#ffffff"
     bordercolor="#666666"
     borderopacity="1"
     objecttolerance="10"
     gridtolerance="10"
     guidetolerance="10"
     inkscape:pageopacity="0"
     inkscape:pageshadow="2"
     inkscape:window-width="798"
     inkscape:window-height="480"
     id="namedview12"
     showgrid="false"
     inkscape:zoom="0.4609375"
     inkscape:cx="381.5227"
     inkscape:cy="256"
     inkscape:window-x="0"
     inkscape:window-y="0"
     inkscape:window-maximized="0"
     inkscape:current-layer="svg10" />
  <path
     d="m16.12 1.929-10.891 5.576-4.329-2.13 10.699-5.283c.24-.122.528-.122.78 0z"
     id="path2"
     style="fill:#ffffff" />
  <path
     d="m23.088 5.375-11.082 5.49-4.15-2.045-.6-.305 10.903-5.575.6.304z"
     id="path4"
     style="fill:#ffffff" />
  <path
     d="m11.118 12.447-.012 11.553-10.614-5.539c-.3-.158-.492-.475-.492-.816v-10.688l4.498 2.216v3.896c0 .499.408.913.9.913s.9-.414.9-.913v-2.995l.6.292z"
     id="path6"
     style="fill:#ffffff" />
  <path
     d="m23.988 6.969-11.07 5.466-.012 11.553 11.094-5.793z"
     id="path8"
     style="fill:#ffffff" />
</svg>
